# xmcd CD database file
#
# Track frame offsets:
#	150
#	13455
#	27590
#	38867
#	50730
#	65455
#	78035
#	91295
#	102310
#	115622
#
# Disc length: 1709 seconds
#
# Revision: 0
# Processed by: cddbd v1.5.1PL0 Copyright (c) Steve Scherf et al.
# Submitted via: CDex 1.51
#
DISCID=7e06ab0a
DTITLE=Dalida - Buenas Noches Mi Amor
DYEAR=1957
DGENRE=Jazz
TTITLE0=Gondolier
TTITLE1=Hitoire D'un Amour
TTITLE2=Calypso Italiano
TTITLE3=Pour Garder
TTITLE4=Lazzarelle
TTITLE5=Buenas Noches Mi Amor
TTITLE6=Le Jour Ou La Pluie Viendra
TTITLE7=J'ecoute Chanter La Brise
TTITLE8=Pardon
TTITLE9=Oh! La La
EXTD=YEAR: 1957
EXTT0=
EXTT1=
EXTT2=
EXTT3=
EXTT4=
EXTT5=
EXTT6=
EXTT7=
EXTT8=
EXTT9=
PLAYORDER=
